<svg width="240" height="89" viewBox="0 0 240 89" fill="none" xmlns="http://www.w3.org/2000/svg">
<g clip-path="url(#clip0_148_1140)">
<path d="M87.8671 44.9954V87.79H80.9787V62.734L76.0505 79.4769H72.3549L67.4825 62.9154V87.79H60.5941V44.9954H67.4825L74.202 67.573L80.9787 44.9954H87.8671ZM44.9688 88.2834C41.6452 88.2834 39.0131 87.2395 37.0724 85.1517C35.1318 83.0639 34.161 80.0151 34.1602 76.0053V56.718C34.1602 52.6667 35.1868 49.5968 37.24 47.5081C39.2932 45.4195 42.0015 44.3756 45.3649 44.3765C48.5768 44.3765 51.1717 45.4102 53.1496 47.4777C55.1275 49.5452 56.1173 52.6874 56.119 56.9044V58.2071H49.2255V56.9653C49.2255 55.0205 48.8612 53.5829 48.1325 52.6528C47.4038 51.7226 46.4237 51.2575 45.1923 51.2575C43.7357 51.2575 42.6812 51.8156 42.0286 52.9318C41.3761 54.048 41.0494 55.7227 41.0486 57.956V75.1377C41.0486 79.3133 42.4298 81.4015 45.1923 81.4023C46.4246 81.4023 47.4046 80.9267 48.1325 79.9754C48.8603 79.0241 49.2247 77.6183 49.2255 75.758V74.6418H56.0581V75.8201C56.0581 79.9551 55.0217 83.0665 52.949 85.1543C50.8763 87.2421 48.2163 88.2851 44.9688 88.2834Z" fill="black"/>
<path fill-rule="evenodd" clip-rule="evenodd" d="M0 65.8413V80.9061V87.7897H6.88841H21.9665V80.9061H6.88841V65.8413H0Z" fill="black"/>
<path fill-rule="evenodd" clip-rule="evenodd" d="M21.9665 0H6.88841H0V6.88234V21.9471H6.88841V6.88234H21.9665V0Z" fill="gold"/>
<path fill-rule="evenodd" clip-rule="evenodd" d="M87.8649 21.9471V6.88234V0H80.9765H65.8984V6.88234H80.9765V21.9471H87.8649Z" fill="black"/>
<path d="M230.792 59.9066C231.994 59.9248 233.179 59.6255 234.228 59.039C235.234 58.4742 236.068 57.6469 236.64 56.6455C237.218 55.6019 237.521 54.4288 237.521 53.2361C237.521 52.0434 237.218 50.8703 236.64 49.8266C236.068 48.8258 235.234 47.9991 234.228 47.4344C233.179 46.8474 231.994 46.5477 230.792 46.5656C229.582 46.5497 228.389 46.8491 227.33 47.4344C226.315 47.994 225.473 48.8215 224.897 49.8266C224.319 50.8703 224.016 52.0434 224.016 53.2361C224.016 54.4288 224.319 55.6019 224.897 56.6455C225.473 57.6512 226.314 58.4793 227.33 59.039C228.389 59.6239 229.582 59.9229 230.792 59.9066ZM230.792 62.1136C229.037 62.1136 227.457 61.7293 226.051 60.9606C224.676 60.2219 223.529 59.1197 222.738 57.7744C221.949 56.3919 221.534 54.828 221.534 53.2367C221.534 51.6454 221.949 50.0815 222.738 48.699C223.529 47.3537 224.676 46.2515 226.051 45.5128C227.458 44.7441 229.038 44.3598 230.792 44.3598C232.436 44.337 234.059 44.7339 235.507 45.5128C236.878 46.2466 238.02 47.3438 238.807 48.6838C239.589 50.0733 239.999 51.6403 239.999 53.2342C239.999 54.828 239.589 56.3951 238.807 57.7846C238.02 59.1246 236.878 60.2218 235.507 60.9556C234.059 61.7362 232.436 62.1349 230.792 62.1136ZM217.737 44.5577V61.9157H215.706L205.282 48.9781V61.9157H202.8V44.5577H204.831L215.255 57.5017V44.5577H217.737ZM191.458 54.526C193.03 54.526 194.23 54.1878 195.057 53.5113C195.885 52.8348 196.297 51.8683 196.294 50.6118C196.294 49.356 195.88 48.3933 195.053 47.7236C194.227 47.0539 193.027 46.719 191.454 46.719H187.236V54.5298L191.458 54.526ZM196.37 61.9157L192.622 56.5885C192.159 56.6214 191.795 56.6392 191.531 56.6392H187.237V61.9208H184.754V44.5577H191.529C193.779 44.5577 195.549 45.0951 196.84 46.1698C198.13 47.2446 198.778 48.7252 198.782 50.6118C198.782 51.9512 198.451 53.0927 197.789 54.0364C197.127 54.9801 196.185 55.6659 194.961 56.0938L199.08 61.9284L196.37 61.9157ZM180.735 59.7595V61.9157H168.127V44.5577H180.387V46.714H170.611V52.0412H179.323V54.1493H170.611V59.7531L180.735 59.7595ZM154.8 59.7595C156.206 59.7595 157.443 59.4867 158.509 58.9413C159.538 58.4322 160.396 57.635 160.98 56.6468C161.558 55.6642 161.848 54.5277 161.848 53.2373C161.848 51.947 161.558 50.8105 160.98 49.8279C160.396 48.8404 159.538 48.0436 158.509 47.5346C157.443 46.9892 156.206 46.7165 154.8 46.7165H150.102V59.7582L154.8 59.7595ZM147.62 44.5577H154.942C156.778 44.5577 158.408 44.9213 159.831 45.6485C161.206 46.3316 162.356 47.3948 163.144 48.7117C163.93 50.0258 164.323 51.5339 164.323 53.2361C164.323 54.9383 163.93 56.4468 163.144 57.7617C162.356 59.0783 161.206 60.141 159.831 60.8236C158.409 61.5517 156.779 61.9157 154.942 61.9157H147.62V44.5577ZM139.654 55.5928L135.907 47.0945L132.159 55.5928H139.654ZM140.523 57.5765H131.291L129.38 61.917H126.823L134.694 44.559H137.151L145.043 61.917H142.437L140.523 57.5765ZM119.284 62.1136C117.547 62.1136 115.981 61.7293 114.586 60.9606C113.221 60.2235 112.084 59.1268 111.298 57.7896C110.504 56.4409 110.107 54.9239 110.107 53.2386C110.108 51.5533 110.505 50.0368 111.298 48.6889C112.086 47.3491 113.228 46.252 114.599 45.5179C116.045 44.7379 117.667 44.3393 119.31 44.3598C120.583 44.3444 121.847 44.5757 123.032 45.0409C124.136 45.4809 125.122 46.1724 125.912 47.0602L124.298 48.6216C122.99 47.2492 121.361 46.563 119.409 46.563C118.186 46.5487 116.98 46.8511 115.908 47.4408C114.891 47.9966 114.047 48.8223 113.47 49.8266C112.893 50.8703 112.589 52.0434 112.589 53.2361C112.589 54.4288 112.893 55.6019 113.47 56.6455C114.048 57.6538 114.894 58.4823 115.914 59.039C116.986 59.625 118.192 59.9238 119.414 59.9066C121.351 59.9066 122.98 59.2124 124.303 57.8239L125.912 59.3853C125.118 60.2759 124.128 60.9706 123.02 61.4147C121.832 61.889 120.563 62.1265 119.284 62.1136Z" fill="black"/>
<path d="M204.41 85.7806C205.612 85.7989 206.798 85.4996 207.847 84.913C208.853 84.3482 209.687 83.521 210.259 82.5196C210.837 81.4759 211.14 80.3028 211.14 79.1101C211.14 77.9174 210.837 76.7443 210.259 75.7006C209.686 74.6999 208.853 73.8731 207.847 73.3084C206.798 72.7219 205.612 72.4226 204.41 72.4408C203.2 72.4245 202.007 72.7235 200.948 73.3084C199.933 73.868 199.092 74.6956 198.516 75.7006C197.938 76.7443 197.635 77.9174 197.635 79.1101C197.635 80.3028 197.938 81.4759 198.516 82.5196C199.092 83.5253 199.933 84.3533 200.948 84.913C202.007 85.4979 203.2 85.797 204.41 85.7806ZM204.41 87.9876C202.656 87.9876 201.076 87.6033 199.67 86.8347C198.294 86.0959 197.148 84.9937 196.356 83.6484C195.568 82.266 195.153 80.7021 195.153 79.1107C195.153 77.5194 195.568 75.9555 196.356 74.573C197.148 73.2277 198.294 72.1256 199.67 71.3868C201.077 70.6182 202.657 70.2338 204.41 70.2338C206.055 70.211 207.677 70.6079 209.125 71.3868C210.496 72.1206 211.638 73.2178 212.426 74.5578C213.208 75.9473 213.618 77.5143 213.618 79.1082C213.618 80.7021 213.208 82.2691 212.426 83.6586C211.638 84.9986 210.496 86.0958 209.125 86.8296C207.678 87.6103 206.055 88.0089 204.41 87.9876ZM186.392 87.9876C184.655 87.9876 183.09 87.6033 181.695 86.8347C180.329 86.0979 179.191 85.0012 178.405 83.6637C177.625 82.2739 177.215 80.707 177.215 79.1133C177.215 77.5196 177.625 75.9526 178.405 74.5629C179.193 73.2232 180.335 72.1261 181.706 71.3919C183.154 70.6128 184.778 70.2159 186.422 70.2389C187.696 70.2235 188.96 70.4548 190.145 70.92C191.246 71.3596 192.231 72.0497 193.019 72.9355L191.405 74.4969C190.098 73.1254 188.468 72.4396 186.516 72.4396C185.294 72.4225 184.089 72.7214 183.016 73.3072C181.996 73.8638 181.15 74.6918 180.573 75.6994C179.995 76.743 179.692 77.9162 179.692 79.1088C179.692 80.3015 179.995 81.4747 180.573 82.5183C181.15 83.5265 181.996 84.355 183.016 84.9118C184.089 85.4976 185.294 85.7964 186.516 85.7794C188.453 85.7794 190.082 85.0851 191.405 83.6966L193.019 85.2593C192.225 86.1497 191.235 86.8443 190.127 87.2887C188.94 87.7636 187.671 88.001 186.392 87.9876ZM170.931 70.4317H173.412V87.7898H170.931V70.4317ZM157.601 85.6322C159.007 85.6322 160.244 85.3595 161.311 84.8141C162.34 84.3045 163.198 83.5074 163.781 82.5196C164.36 81.537 164.649 80.4005 164.649 79.1101C164.649 77.8197 164.36 76.6832 163.781 75.7006C163.197 74.7135 162.339 73.9168 161.311 73.4074C160.244 72.862 159.007 72.5893 157.601 72.5893H152.903V85.6322H157.601ZM150.428 70.4317H157.749C159.587 70.4317 161.216 70.7953 162.638 71.5225C164.013 72.206 165.163 73.2691 165.951 74.5857C166.737 75.8998 167.13 77.4079 167.131 79.1101C167.132 80.8123 166.739 82.3208 165.951 83.6358C165.163 84.9524 164.013 86.0155 162.638 86.6989C161.216 87.4262 159.587 87.7898 157.749 87.7898H150.428V70.4317ZM141.469 65.7944H144.497L140.328 69.0187H138.1L141.469 65.7944ZM146.407 85.6322V87.7885H133.8V70.4317H146.061V72.588H136.285V77.9153H144.997V80.0233H136.284V85.6322H146.407ZM126.205 87.7885L126.181 75.1425L119.902 85.6804H118.76L112.483 75.2186V87.791H110.102V70.4317H112.133L119.379 82.6312L126.527 70.4317H128.558L128.583 87.7898L126.205 87.7885Z" fill="black"/>
</g>
<defs>
<clipPath id="clip0_148_1140">
<rect width="240" height="88.2857" fill="white"/>
</clipPath>
</defs>
</svg>
